<svg width="38" height="31" viewBox="0 0 38 31" fill="none" xmlns="http://www.w3.org/2000/svg">
<ellipse cx="19" cy="15.5" rx="19" ry="15.5" fill="#171717"/>
<path d="M8.945 21V8.85H11.735C12.285 8.85 12.76 8.91 13.16 9.03C13.57 9.15 13.91 9.335 14.18 9.585C14.45 9.835 14.65 10.155 14.78 10.545C14.91 10.925 14.975 11.375 14.975 11.895C14.975 12.395 14.91 12.83 14.78 13.2C14.66 13.56 14.47 13.845 14.21 14.055C13.96 14.265 13.635 14.4 13.235 14.46C13.725 14.57 14.12 14.76 14.42 15.03C14.72 15.29 14.94 15.63 15.08 16.05C15.23 16.46 15.305 16.955 15.305 17.535C15.305 18.055 15.245 18.53 15.125 18.96C15.005 19.39 14.815 19.755 14.555 20.055C14.305 20.355 13.98 20.59 13.58 20.76C13.19 20.92 12.725 21 12.185 21H8.945ZM10.64 19.785H11.78C12.54 19.785 13.045 19.61 13.295 19.26C13.555 18.9 13.685 18.325 13.685 17.535C13.685 17.025 13.615 16.6 13.475 16.26C13.345 15.91 13.13 15.65 12.83 15.48C12.54 15.3 12.145 15.21 11.645 15.21H10.64V19.785ZM10.64 13.92H11.645C12.125 13.92 12.5 13.855 12.77 13.725C13.04 13.585 13.23 13.365 13.34 13.065C13.45 12.765 13.505 12.375 13.505 11.895C13.505 11.335 13.42 10.93 13.25 10.68C13.08 10.43 12.815 10.275 12.455 10.215C12.095 10.145 11.625 10.11 11.045 10.11H10.64V13.92ZM16.6012 21V19.215H18.2062V21H16.6012ZM22.6834 21.135C21.8234 21.135 21.1534 20.955 20.6734 20.595C20.2034 20.235 19.8734 19.75 19.6834 19.14C19.5034 18.53 19.4134 17.85 19.4134 17.1V12.81C19.4134 11.99 19.5034 11.275 19.6834 10.665C19.8734 10.055 20.2034 9.585 20.6734 9.255C21.1534 8.915 21.8234 8.745 22.6834 8.745C23.4434 8.745 24.0434 8.885 24.4834 9.165C24.9334 9.445 25.2534 9.845 25.4434 10.365C25.6434 10.885 25.7434 11.51 25.7434 12.24V13.2H24.1384V12.345C24.1384 11.895 24.1134 11.5 24.0634 11.16C24.0234 10.81 23.9034 10.54 23.7034 10.35C23.5034 10.16 23.1684 10.065 22.6984 10.065C22.2184 10.065 21.8684 10.17 21.6484 10.38C21.4284 10.58 21.2834 10.87 21.2134 11.25C21.1534 11.62 21.1234 12.055 21.1234 12.555V17.37C21.1234 17.98 21.1734 18.465 21.2734 18.825C21.3734 19.175 21.5384 19.425 21.7684 19.575C21.9984 19.725 22.3084 19.8 22.6984 19.8C23.1584 19.8 23.4884 19.7 23.6884 19.5C23.8884 19.29 24.0134 19.005 24.0634 18.645C24.1134 18.285 24.1384 17.865 24.1384 17.385V16.485H25.7434V17.385C25.7434 18.125 25.6534 18.78 25.4734 19.35C25.2934 19.91 24.9834 20.35 24.5434 20.67C24.1034 20.98 23.4834 21.135 22.6834 21.135ZM27.1481 21V19.215H28.7531V21H27.1481Z" fill="white"/>
</svg>
